<mxfile host="app.diagrams.net" agent="Mozilla/5.0 (Windows NT 10.0; Win64; x64) AppleWebKit/537.36 (KHTML, like Gecko) Chrome/129.0.0.0 Safari/537.36" version="24.7.16">
  <diagram name="Page-1" id="Uge1D6tLbdBm_kWsmsTx">
    <mxGraphModel dx="1050" dy="580" grid="1" gridSize="10" guides="1" tooltips="1" connect="1" arrows="1" fold="1" page="1" pageScale="1" pageWidth="850" pageHeight="1100" math="0" shadow="0">
      <root>
        <mxCell id="0" />
        <mxCell id="1" parent="0" />
        <mxCell id="KnmcPttmlgP_zkwfvlEp-3" value="" style="edgeStyle=orthogonalEdgeStyle;rounded=0;orthogonalLoop=1;jettySize=auto;html=1;fontSize=14;" edge="1" parent="1" source="KnmcPttmlgP_zkwfvlEp-1" target="KnmcPttmlgP_zkwfvlEp-2">
          <mxGeometry relative="1" as="geometry" />
        </mxCell>
        <mxCell id="KnmcPttmlgP_zkwfvlEp-1" value="START" style="strokeWidth=2;html=1;shape=mxgraph.flowchart.terminator;whiteSpace=wrap;fontSize=14;" vertex="1" parent="1">
          <mxGeometry x="367.5" y="40" width="100" height="50" as="geometry" />
        </mxCell>
        <mxCell id="KnmcPttmlgP_zkwfvlEp-5" value="" style="edgeStyle=orthogonalEdgeStyle;rounded=0;orthogonalLoop=1;jettySize=auto;html=1;fontSize=14;" edge="1" parent="1" source="KnmcPttmlgP_zkwfvlEp-2" target="KnmcPttmlgP_zkwfvlEp-4">
          <mxGeometry relative="1" as="geometry" />
        </mxCell>
        <mxCell id="KnmcPttmlgP_zkwfvlEp-2" value="int user_choice&lt;div style=&quot;font-size: 14px;&quot;&gt;bool input_valid = false&lt;/div&gt;" style="verticalLabelPosition=middle;verticalAlign=middle;html=1;shape=hexagon;perimeter=hexagonPerimeter2;arcSize=6;size=0.1;labelPosition=center;align=center;fontSize=14;" vertex="1" parent="1">
          <mxGeometry x="342.5" y="120" width="150" height="70" as="geometry" />
        </mxCell>
        <mxCell id="KnmcPttmlgP_zkwfvlEp-7" value="" style="edgeStyle=orthogonalEdgeStyle;rounded=0;orthogonalLoop=1;jettySize=auto;html=1;fontSize=14;" edge="1" parent="1" source="KnmcPttmlgP_zkwfvlEp-4" target="KnmcPttmlgP_zkwfvlEp-6">
          <mxGeometry relative="1" as="geometry" />
        </mxCell>
        <mxCell id="KnmcPttmlgP_zkwfvlEp-17" value="TRUE" style="edgeLabel;html=1;align=center;verticalAlign=middle;resizable=0;points=[];" vertex="1" connectable="0" parent="KnmcPttmlgP_zkwfvlEp-7">
          <mxGeometry x="-0.27" relative="1" as="geometry">
            <mxPoint as="offset" />
          </mxGeometry>
        </mxCell>
        <mxCell id="KnmcPttmlgP_zkwfvlEp-4" value="&lt;b&gt;&lt;font color=&quot;#ff3333&quot; style=&quot;font-size: 16px;&quot;&gt;!&lt;/font&gt;&lt;/b&gt;input_valid IS TRUE ?" style="strokeWidth=2;html=1;shape=mxgraph.flowchart.decision;whiteSpace=wrap;fontSize=14;" vertex="1" parent="1">
          <mxGeometry x="362.5" y="220" width="110" height="110" as="geometry" />
        </mxCell>
        <mxCell id="KnmcPttmlgP_zkwfvlEp-9" value="" style="edgeStyle=orthogonalEdgeStyle;rounded=0;orthogonalLoop=1;jettySize=auto;html=1;fontSize=14;" edge="1" parent="1" source="KnmcPttmlgP_zkwfvlEp-6" target="KnmcPttmlgP_zkwfvlEp-8">
          <mxGeometry relative="1" as="geometry" />
        </mxCell>
        <mxCell id="KnmcPttmlgP_zkwfvlEp-6" value="input user_choice" style="shape=parallelogram;html=1;strokeWidth=2;perimeter=parallelogramPerimeter;whiteSpace=wrap;rounded=1;arcSize=12;size=0.23;fontSize=14;" vertex="1" parent="1">
          <mxGeometry x="330" y="370" width="175" height="60" as="geometry" />
        </mxCell>
        <mxCell id="KnmcPttmlgP_zkwfvlEp-11" value="" style="edgeStyle=orthogonalEdgeStyle;rounded=0;orthogonalLoop=1;jettySize=auto;html=1;fontSize=14;" edge="1" parent="1" source="KnmcPttmlgP_zkwfvlEp-8" target="KnmcPttmlgP_zkwfvlEp-10">
          <mxGeometry relative="1" as="geometry" />
        </mxCell>
        <mxCell id="KnmcPttmlgP_zkwfvlEp-18" value="TRUE" style="edgeLabel;html=1;align=center;verticalAlign=middle;resizable=0;points=[];" vertex="1" connectable="0" parent="KnmcPttmlgP_zkwfvlEp-11">
          <mxGeometry x="0.264" y="-2" relative="1" as="geometry">
            <mxPoint as="offset" />
          </mxGeometry>
        </mxCell>
        <mxCell id="KnmcPttmlgP_zkwfvlEp-20" value="" style="edgeStyle=orthogonalEdgeStyle;rounded=0;orthogonalLoop=1;jettySize=auto;html=1;" edge="1" parent="1" source="KnmcPttmlgP_zkwfvlEp-8" target="KnmcPttmlgP_zkwfvlEp-19">
          <mxGeometry relative="1" as="geometry" />
        </mxCell>
        <mxCell id="KnmcPttmlgP_zkwfvlEp-21" value="FALSE" style="edgeLabel;html=1;align=center;verticalAlign=middle;resizable=0;points=[];" vertex="1" connectable="0" parent="KnmcPttmlgP_zkwfvlEp-20">
          <mxGeometry x="-0.4222" y="2" relative="1" as="geometry">
            <mxPoint as="offset" />
          </mxGeometry>
        </mxCell>
        <mxCell id="KnmcPttmlgP_zkwfvlEp-8" value="user_choice &amp;gt;= 1 &amp;amp;&amp;amp; user_choice &amp;lt;= 5 || user_choice== 99 ?" style="strokeWidth=2;html=1;shape=mxgraph.flowchart.decision;whiteSpace=wrap;fontSize=14;" vertex="1" parent="1">
          <mxGeometry x="332.5" y="470" width="170" height="170" as="geometry" />
        </mxCell>
        <mxCell id="KnmcPttmlgP_zkwfvlEp-13" value="" style="edgeStyle=orthogonalEdgeStyle;rounded=0;orthogonalLoop=1;jettySize=auto;html=1;fontSize=14;" edge="1" parent="1" source="KnmcPttmlgP_zkwfvlEp-10" target="KnmcPttmlgP_zkwfvlEp-12">
          <mxGeometry relative="1" as="geometry" />
        </mxCell>
        <mxCell id="KnmcPttmlgP_zkwfvlEp-10" value="input_valid = TRUE" style="rounded=1;whiteSpace=wrap;html=1;absoluteArcSize=1;arcSize=14;strokeWidth=2;fontSize=14;" vertex="1" parent="1">
          <mxGeometry x="352.5" y="670" width="130" height="50" as="geometry" />
        </mxCell>
        <mxCell id="KnmcPttmlgP_zkwfvlEp-15" value="" style="edgeStyle=orthogonalEdgeStyle;rounded=0;orthogonalLoop=1;jettySize=auto;html=1;fontSize=14;" edge="1" parent="1" source="KnmcPttmlgP_zkwfvlEp-12" target="KnmcPttmlgP_zkwfvlEp-14">
          <mxGeometry relative="1" as="geometry" />
        </mxCell>
        <mxCell id="KnmcPttmlgP_zkwfvlEp-12" value="return user_choice" style="rounded=1;whiteSpace=wrap;html=1;absoluteArcSize=1;arcSize=14;strokeWidth=2;fontSize=14;" vertex="1" parent="1">
          <mxGeometry x="352.5" y="750" width="130" height="50" as="geometry" />
        </mxCell>
        <mxCell id="KnmcPttmlgP_zkwfvlEp-14" value="END" style="strokeWidth=2;html=1;shape=mxgraph.flowchart.terminator;whiteSpace=wrap;fontSize=14;" vertex="1" parent="1">
          <mxGeometry x="367.5" y="830" width="100" height="50" as="geometry" />
        </mxCell>
        <mxCell id="KnmcPttmlgP_zkwfvlEp-19" value="input_valid = FALSE" style="rounded=1;whiteSpace=wrap;html=1;absoluteArcSize=1;arcSize=14;strokeWidth=2;fontSize=14;" vertex="1" parent="1">
          <mxGeometry x="582.5" y="530" width="130" height="50" as="geometry" />
        </mxCell>
        <mxCell id="KnmcPttmlgP_zkwfvlEp-22" style="edgeStyle=orthogonalEdgeStyle;rounded=0;orthogonalLoop=1;jettySize=auto;html=1;exitX=0.5;exitY=0;exitDx=0;exitDy=0;entryX=1;entryY=0.5;entryDx=0;entryDy=0;entryPerimeter=0;" edge="1" parent="1" source="KnmcPttmlgP_zkwfvlEp-19" target="KnmcPttmlgP_zkwfvlEp-4">
          <mxGeometry relative="1" as="geometry" />
        </mxCell>
        <mxCell id="KnmcPttmlgP_zkwfvlEp-23" value="&lt;font style=&quot;font-size: 23px;&quot;&gt;input::pattern FUNCTION&lt;/font&gt;" style="text;html=1;align=center;verticalAlign=middle;resizable=0;points=[];autosize=1;strokeColor=none;fillColor=none;" vertex="1" parent="1">
          <mxGeometry x="22.5" y="63" width="280" height="40" as="geometry" />
        </mxCell>
      </root>
    </mxGraphModel>
  </diagram>
</mxfile>
